<svg width="512" height="512" viewBox="0 0 512 512" fill="none" xmlns="http://www.w3.org/2000/svg">
<g clip-path="url(#clip0_65_390)">
<mask id="mask0_65_390" style="mask-type:alpha" maskUnits="userSpaceOnUse" x="0" y="0" width="512" height="512">
<rect x="10" y="10" width="492" height="492" rx="84" fill="#3D298E" stroke="white" stroke-width="20"/>
</mask>
<g mask="url(#mask0_65_390)">
<rect width="512" height="512" fill="#6A51CD"/>
<rect y="256" width="512" height="256" fill="#3D298E"/>
<rect x="10" y="10" width="492" height="492" rx="84" stroke="white" stroke-width="20"/>
<path d="M98.1753 116.175H412.825V366.647C412.825 366.647 382.519 418.346 257.728 418.346C132.938 418.346 98.1753 366.647 98.1753 366.647V116.175Z" fill="#2E1D72" fill-opacity="0.65"/>
<path d="M243.697 406.115C248.232 406.267 252.908 406.345 257.728 406.345V418.345C252.777 418.345 247.967 418.262 243.295 418.106L243.697 406.115ZM271.843 418.117C267.278 418.267 262.574 418.345 257.728 418.345V406.345C262.446 406.345 267.018 406.27 271.45 406.125L271.843 418.117ZM327.67 411.81C319.202 413.572 309.955 415.056 299.868 416.162L299.834 415.852L299.214 410.199L298.561 404.235C308.282 403.169 317.15 401.745 325.227 400.064L327.67 411.81ZM188.65 399.854C196.952 401.584 206.037 403.052 215.963 404.153L215.301 410.116L215.302 410.117L214.641 416.079C204.349 414.938 194.888 413.411 186.202 411.601L188.65 399.854ZM380.622 393.292C373.499 397.155 364.967 400.994 354.812 404.463L350.933 393.11C360.469 389.852 368.384 386.281 374.902 382.746L380.622 393.292ZM137.549 382.302C144.349 385.869 152.536 389.473 162.299 392.766L158.463 404.135C148.11 400.643 139.343 396.792 131.976 392.928L137.549 382.302ZM412.825 350.993V366.647C412.817 366.66 410.26 371.008 403.596 377.179L395.445 368.378C397.932 366.075 399.683 364.13 400.825 362.743V350.993H412.825ZM110.175 350.993V362.366C111.45 363.761 113.335 365.669 115.931 367.91L108.093 376.993C101.058 370.922 98.1856 366.662 98.1753 366.647V350.993H110.175ZM110.175 288.375V319.683H98.1753V288.375H110.175ZM412.825 288.375V319.683H400.825V288.375H412.825ZM110.175 225.756V257.066H98.1753V225.756H110.175ZM412.825 225.756V257.066H400.825V225.756H412.825ZM110.175 163.139V194.448H98.1753V163.139H110.175ZM412.825 163.139V194.448H400.825V163.139H412.825ZM113.908 116.175V128.175H110.175V131.83H98.1753V116.175H113.908ZM412.825 116.175V131.83H400.825V128.175H397.092V116.175H412.825ZM176.837 116.175V128.175H145.373V116.175H176.837ZM239.767 116.175V128.175H208.302V116.175H239.767ZM302.698 116.175V128.175H271.233V116.175H302.698ZM365.627 116.175V128.175H334.163V116.175H365.627Z" fill="white"/>
<path d="M121.351 116.175C121.351 128.975 110.975 139.351 98.1753 139.351C85.3759 139.351 75 128.975 75 116.175C75 103.376 85.3759 93 98.1753 93C110.975 93 121.351 103.376 121.351 116.175Z" fill="#4E34B4"/>
<path d="M109.351 116.176C109.351 110.004 104.348 105 98.1758 105C92.0038 105 87 110.004 87 116.176C87.0003 122.348 92.004 127.351 98.1758 127.351V139.351L97.5772 139.343C85.253 139.031 75.32 129.098 75.0078 116.773L75 116.176C75 103.376 85.3764 93 98.1758 93L98.7735 93.0078C111.296 93.3251 121.351 103.576 121.351 116.176L121.343 116.773C121.026 129.296 110.775 139.35 98.1758 139.351V127.351C104.347 127.35 109.35 122.347 109.351 116.176Z" fill="white"/>
<path d="M121.351 366.647C121.351 379.446 110.975 389.822 98.1753 389.822C85.3759 389.822 75 379.446 75 366.647C75 353.848 85.3759 343.472 98.1753 343.472C110.975 343.472 121.351 353.848 121.351 366.647Z" fill="#4E34B4"/>
<path d="M109.351 366.647C109.351 360.476 104.348 355.472 98.1758 355.472C92.0038 355.472 87 360.475 87 366.647C87.0003 372.819 92.004 377.822 98.1758 377.822V389.822L97.5772 389.814C85.253 389.502 75.32 379.569 75.0078 367.245L75 366.647C75 353.848 85.3764 343.472 98.1758 343.472L98.7735 343.479C111.296 343.797 121.351 354.048 121.351 366.647L121.343 367.245C121.026 379.768 110.775 389.822 98.1758 389.822V377.822C104.347 377.822 109.35 372.819 109.351 366.647Z" fill="white"/>
<path d="M436 116.175C436 128.975 425.624 139.351 412.825 139.351C400.025 139.351 389.649 128.975 389.649 116.175C389.649 103.376 400.025 93 412.825 93C425.624 93 436 103.376 436 116.175Z" fill="#4E34B4"/>
<path d="M424 116.176C424 110.004 418.997 105 412.825 105C406.653 105 401.649 110.004 401.649 116.176C401.65 122.348 406.653 127.351 412.825 127.351V139.351L412.227 139.343C399.902 139.031 389.969 129.098 389.657 116.773L389.649 116.176C389.649 103.376 400.026 93 412.825 93L413.423 93.0078C425.946 93.3251 436 103.576 436 116.176L435.992 116.773C435.675 129.296 425.424 139.35 412.825 139.351V127.351C418.997 127.35 424 122.347 424 116.176Z" fill="white"/>
<path d="M377.897 295.596C377.953 293.766 308.735 290.306 304.985 293.354C301.235 296.401 300.343 364.975 302.78 365.05C305.218 365.125 322.328 348.126 322.328 348.126L334.018 338.036L404.223 408.93L391.36 421.539C391.36 421.539 373.493 438.593 373.456 440.016C373.418 441.438 441.429 445.228 444.964 442.215C448.499 439.201 448.622 369.535 447.2 369.491C445.778 369.447 427.621 387.442 427.621 387.442L417.32 397.769L347.799 325.077L358.588 314.029C358.588 314.029 377.84 297.426 377.897 295.596Z" fill="white" stroke="white" stroke-width="15"/>
</g>
</g>
<defs>
<clipPath id="clip0_65_390">
<rect width="512" height="512" rx="94" fill="white"/>
</clipPath>
</defs>
</svg>
